<svg xmlns="http://www.w3.org/2000/svg" width="34" height="34"><path d="M15.908 1.883c-7.732 0-14 6.268-14 14s6.268 14 14 14 14-6.268 14-14-6.268-14-14-14zm0 1.166c5.878 0 10.834 3.95 12.353 9.34-1.304 2.7-3.17 5.13-5.434 7.095-1.09.943-2.28 1.784-3.594 2.376-1.314.593-2.76.93-4.2.847-1.08-.063-2.15-.364-3.094-.89 2.51-1.36 4.773-3.172 6.626-5.342 1.22-1.425 2.28-3.045 2.69-4.873.208-.914.24-1.87.05-2.788-.19-.918-.614-1.79-1.256-2.474-.627-.666-1.45-1.14-2.332-1.382-.88-.243-1.82-.262-2.72-.098-1.8.33-3.41 1.376-4.697 2.675-2.274 2.29-3.68 5.522-3.42 8.738.13 1.608.667 3.188 1.59 4.51.206.296.433.577.675.843-1.345.473-2.74.808-4.15.997-1.213-1.96-1.914-4.27-1.914-6.743 0-7.09 5.745-12.834 12.833-12.834zm.08 2.59c.904 0 1.812.273 2.532.82.648.49 1.13 1.183 1.4 1.95.273.765.343 1.596.25 2.404-.185 1.615-1 3.096-1.984 4.39-1.743 2.29-4.06 4.123-6.636 5.407-.263.13-.53.257-.8.377-.56-.49-1.04-1.07-1.408-1.72-.765-1.356-1.017-2.965-.87-4.514.15-1.55.68-3.042 1.395-4.425.828-1.603 1.957-3.12 3.537-3.993.79-.437 1.683-.7 2.585-.7zm12.638 8.52c.075.563.115 1.136.115 1.72 0 7.087-5.74 12.833-12.83 12.833-3.98 0-7.54-1.812-9.89-4.657 1.453-.33 2.873-.805 4.235-1.408.597.452 1.254.824 1.954 1.092 2.012.772 4.3.66 6.337-.045 2.037-.706 3.845-1.97 5.42-3.445 1.877-1.754 3.46-3.822 4.664-6.09z" fill="#333"/></svg>